# xmcd
#
# Track frame offsets:
#	150
#	18500
#	42337
#	59062
#	83587
#	107362
#	121687
#	140437
#	161762
#	184237
#
# Disc length: 2728 seconds
#
# Revision: 1
# Processed by: cddbd v1.5PL3 Copyright (c) Steve Scherf et al.
# Submitted via: CDex 1.50Beta5
#
DISCID=7f0aa60a
DTITLE=Huckleberryfinn - Parade
DYEAR=2000
DGENRE=Pop
TTITLE0=夕さりの虹
TTITLE1=Mountain
TTITLE2=アドバルーン
TTITLE3=25
TTITLE4=レンタルレコード
TTITLE5=March
TTITLE6=アクアラング
TTITLE7=青春ボディブロー
TTITLE8=さよなら影ぼうし
TTITLE9=カルミア
EXTD=
EXTT0=
EXTT1=
EXTT2=
EXTT3=
EXTT4=
EXTT5=
EXTT6=
EXTT7=
EXTT8=
EXTT9=
PLAYORDER=
